HIERARCHY
ROOT hip
{
	OFFSET 0.000000 0.000000 0.000000 
	CHANNELS 6 Xposition Yposition Zposition Xrotation Zrotation Yrotation
	JOINT abdomen
	{
		OFFSET 0.000000 3.402643 0.000000 
		CHANNELS 3 Xrotation Zrotation Yrotation
		JOINT chest
		{
			OFFSET 0.000000 8.438565 -0.680529 
			CHANNELS 3 Xrotation Zrotation Yrotation
			JOINT neck
			{
				OFFSET 0.000000 10.207942 -0.272212 
				CHANNELS 3 Xrotation Zrotation Yrotation
				JOINT head
				{
					OFFSET 0.000000 3.130431 0.000000 
					CHANNELS 3 Xrotation Zrotation Yrotation
					End Site
					{
						OFFSET 0.000000 3.130435 0.000000 
					}
				}
			}
			JOINT lCollar
			{
				OFFSET 3.470700 6.669187 -0.816635 
				CHANNELS 3 Yrotation Zrotation Xrotation
				JOINT lShldr
				{
					OFFSET 3.198488 0.000000 0.000000 
					CHANNELS 3 Zrotation Yrotation Xrotation
					JOINT lForeArm
					{
						OFFSET 10.139888 0.000000 0.000000 
						CHANNELS 3 Yrotation Zrotation Xrotation
						JOINT lHand
						{
							OFFSET 8.370511 0.000000 0.000000 
							CHANNELS 3 Zrotation Yrotation Xrotation
							End Site
							{
								OFFSET 4.083176 0.000000 0.000000 
							}
						}
					}
				}
			}
			JOINT rCollar
			{
				OFFSET -3.470700 6.669187 -0.816635 
				CHANNELS 3 Yrotation Zrotation Xrotation
				JOINT rShldr
				{
					OFFSET -3.198488 0.000000 0.000000 
					CHANNELS 3 Zrotation Yrotation Xrotation
					JOINT rForeArm
					{
						OFFSET -10.139888 0.000000 0.000000 
						CHANNELS 3 Yrotation Zrotation Xrotation
						JOINT rHand
						{
							OFFSET -8.370511 0.000000 0.000000 
							CHANNELS 3 Zrotation Yrotation Xrotation
							End Site
							{
								OFFSET -4.083176 0.000000 0.000000 
							}
						}
					}
				}
			}
		}
	}
	JOINT lThigh
	{
		OFFSET 5.308129 -1.633274 1.361059 
		CHANNELS 3 Xrotation Zrotation Yrotation
		JOINT lShin
		{
			OFFSET -2.041588 -20.007561 0.000000 
			CHANNELS 3 Xrotation Zrotation Yrotation
			JOINT lFoot
			{
				OFFSET 0.000000 -19.190928 -1.224953 
				CHANNELS 3 Xrotation Yrotation Zrotation
				End Site
				{
					OFFSET 0.000000 -2.449906 4.627600 
				}
			}
		}
	}
	JOINT rThigh
	{
		OFFSET -5.308129 -1.633274 1.361059 
		CHANNELS 3 Xrotation Zrotation Yrotation
		JOINT rShin
		{
			OFFSET 2.041588 -20.007561 0.000000 
			CHANNELS 3 Xrotation Zrotation Yrotation
			JOINT rFoot
			{
				OFFSET 0.000000 -19.190928 -1.224953 
				CHANNELS 3 Xrotation Yrotation Zrotation
				End Site
				{
					OFFSET 0.000000 -2.449906 4.627600 
				}
			}
		}
	}
}
MOTION
Frames: 15
Frame Time: 0.011111
0.403880 52.698711 7.950690 -4.159961 1.674788 -4.429752 27.314802 -4.402815 3.095844 -22.032249 -0.224636 1.203915 -15.809970 -3.609478 0.360609 10.583198 13.196612 0.651683 2.424333 -4.683778 1.783845 -65.215080 -38.667320 65.519707 -86.269341 1.284037 30.139744 8.524705 12.647240 -31.321663 -2.738486 -1.140572 2.095526 65.690178 23.692146 51.047768 85.845573 -1.778930 28.075691 -8.534408 -12.637552 51.097511 13.052497 8.600307 -6.601230 5.465508 -6.002658 -1.486897 -20.035191 13.800145 1.559602 10.544177 -11.341429 15.974811 10.388299 5.972916 2.192550 -25.706640 -16.866987 -4.454656 
0.402075 52.710136 7.972042 -3.938594 1.766612 -3.909765 26.918892 -4.276226 2.738845 -21.837063 -0.243665 1.086499 -15.838020 -3.582364 0.386201 10.702580 13.133215 0.693312 2.424333 -4.683778 1.783845 -65.142197 -38.980881 65.996315 -86.277336 1.297380 30.197701 8.524705 12.647240 -30.882212 -2.738486 -1.140572 2.095526 65.697845 24.082708 51.579090 85.896164 -1.699384 28.218880 -8.534408 -12.637552 51.038921 12.685759 8.671696 -7.134218 5.538316 -6.015292 -1.494407 -19.989054 13.856158 1.575125 10.513283 -11.319878 15.928549 10.287325 5.973470 2.154595 -26.027182 -17.166977 -4.673783 
0.401474 52.719154 7.976552 -3.852810 1.821592 -3.469902 26.746325 -4.145586 2.426138 -21.768744 -0.278423 0.989898 -15.788462 -3.545399 0.371071 10.740619 13.074895 0.691924 2.424333 -4.683778 1.783845 -65.067993 -39.235851 66.414322 -86.288139 1.311187 30.265373 8.524705 12.647240 -30.667372 -2.738486 -1.140572 2.095526 65.714920 24.443815 52.237801 85.938553 -1.627550 28.361589 -8.534408 -12.637552 51.439312 12.362423 8.710008 -7.605597 5.761426 -6.005650 -1.523134 -19.933973 13.879508 1.549473 10.613090 -11.313267 15.878393 10.163223 5.972646 2.152778 -26.324211 -17.427004 -4.873235 
0.396061 52.716747 7.939563 -3.988991 1.779333 -3.540398 26.949799 -4.128946 2.500327 -21.944437 -0.303753 1.011606 -15.750791 -3.582003 0.347217 10.936897 13.063852 0.655139 2.424333 -4.683778 1.783845 -65.030891 -39.363335 66.829704 -86.300125 1.326116 30.352766 8.524705 12.647240 -30.423229 -2.738486 -1.140572 2.095526 65.691109 24.746990 52.891033 85.972000 -1.571542 28.473387 -8.534408 -12.637552 51.868996 12.357350 8.705622 -7.526038 5.991753 -6.011760 -1.554293 -20.022411 13.837404 1.581076 10.767588 -11.300616 15.876619 10.005133 5.971486 2.138612 -26.127960 -17.469463 -4.829879 
0.378619 52.723366 7.924226 -3.912714 1.748582 -3.055912 26.846985 -3.921170 2.125965 -21.983681 -0.250003 0.892019 -15.781454 -3.640676 0.357051 11.215661 13.065266 0.675960 2.424333 -4.683778 1.783845 -65.024490 -39.519695 67.122437 -86.307899 1.339272 30.410515 8.524705 12.647240 -30.208387 -2.738486 -1.140572 2.095526 65.617813 25.060741 53.497730 86.006424 -1.516659 28.604900 -8.534408 -12.637552 52.259621 11.976500 8.880958 -8.003408 6.229800 -6.005093 -1.604413 -19.989967 13.879725 1.567015 10.907862 -11.131366 15.453332 9.828411 5.983041 2.084583 -26.122892 -17.546791 -4.834309 
0.369296 52.723667 7.927233 -3.903741 1.717662 -2.798979 26.760908 -3.750916 1.884669 -21.993587 -0.205194 0.801981 -15.723350 -3.718091 0.403522 11.349557 13.082025 0.770470 2.424333 -4.683778 1.783845 -65.027878 -39.666157 67.366562 -86.314400 1.350540 30.439281 8.524705 12.647240 -30.032604 -2.738486 -1.140572 2.095526 65.545471 25.423307 54.149158 86.036835 -1.470624 28.735577 -8.534408 -12.637552 52.913921 11.811289 8.969429 -8.257352 6.416374 -6.006431 -1.631969 -20.008863 13.879313 1.591912 11.063194 -11.051224 15.233885 9.724966 5.983021 2.094309 -26.142887 -17.570181 -4.857048 
0.367793 52.722462 7.930241 -3.933321 1.685295 -2.680271 26.711222 -3.628282 1.774471 -21.974033 -0.236550 0.764252 -15.626310 -3.805555 0.448692 11.335490 13.158339 0.845343 2.424333 -4.683778 1.783845 -65.009003 -39.715256 67.590691 -86.325989 1.374382 30.516087 8.524705 12.647240 -29.807995 -2.738486 -1.140572 2.095526 65.533005 25.794664 54.709312 86.061089 -1.431309 28.836252 -8.534408 -12.637552 53.529156 11.764544 9.030178 -8.376979 6.518075 -6.011287 -1.650648 -20.023653 13.874629 1.592328 11.177087 -11.008114 15.197828 9.651527 5.991867 2.059557 -26.196058 -17.571123 -4.889743 
0.367793 52.723064 7.931143 -3.953422 1.752928 -2.538739 26.682739 -3.597422 1.602183 -21.905611 -0.298208 0.717846 -15.654984 -3.783718 0.455664 11.335912 13.146041 0.863985 2.424333 -4.683778 1.783845 -64.910255 -39.775211 67.783661 -86.339050 1.398009 30.593128 8.524705 12.647240 -29.690805 -2.738486 -1.140572 2.095526 65.591423 26.223471 55.193935 86.085152 -1.392362 28.946922 -8.534408 -12.637552 54.036968 11.724772 8.990360 -8.542212 6.567073 -6.001439 -1.635185 -20.017214 13.887998 1.587479 11.268394 -11.042518 15.092474 9.605095 5.973859 2.053940 -26.286398 -17.573143 -4.919609 
0.369296 52.722164 7.934450 -3.983334 1.849478 -2.399592 26.684191 -3.627502 1.443086 -21.778576 -0.369777 0.681102 -15.673336 -3.717626 0.438481 11.272656 13.081375 0.833644 2.424333 -4.683778 1.783845 -64.784653 -39.972267 67.956375 -86.349190 1.420518 30.650475 8.524705 12.647240 -29.554092 -2.738486 -1.140572 2.095526 65.670845 26.700771 55.659813 86.109673 -1.353839 29.067089 -8.534408 -12.637552 54.671734 11.730941 8.900028 -8.705058 6.605385 -6.003018 -1.629041 -20.062105 13.912192 1.597943 11.335519 -11.138694 14.976740 9.580155 5.976629 2.062185 -26.391275 -17.592766 -4.954554 
0.368093 52.720058 7.934450 -4.032199 1.811898 -2.349720 26.711397 -3.543515 1.440766 -21.719904 -0.429837 0.663674 -15.674297 -3.725505 0.410913 11.240661 13.078979 0.780065 2.424333 -4.683778 1.783845 -64.698387 -40.139484 68.194908 -86.357994 1.432665 30.698732 8.524705 12.647240 -29.251354 -2.738486 -1.140572 2.095526 65.719322 27.119972 56.066071 86.131065 -1.325136 29.196411 -8.534408 -12.637552 55.306496 11.760905 8.958124 -8.745281 6.617834 -6.003363 -1.649389 -19.996637 13.926298 1.585362 11.383745 -11.079052 14.984896 9.580154 5.976633 2.062185 -26.402384 -17.669786 -4.997763 
0.365387 52.719456 7.931443 -4.070938 1.756741 -2.415685 26.748449 -3.517699 1.528616 -21.758896 -0.467576 0.685150 -15.724507 -3.751562 0.392648 11.389911 13.145668 0.747853 2.424333 -4.683778 1.783845 -64.627609 -40.111145 68.392067 -86.372131 1.465717 30.774923 8.524705 12.647240 -28.733776 -2.738486 -1.140572 2.095526 65.734749 27.383434 56.461552 86.149551 -1.304428 29.305655 -8.534408 -12.637552 55.990089 11.772317 8.998979 -8.669455 6.656873 -6.003542 -1.662667 -19.982004 13.948337 1.597760 11.421777 -11.038268 15.129277 9.540231 5.985814 2.048506 -26.323429 -17.755695 -4.983749 
0.360274 52.718853 7.932947 -4.099746 1.735298 -2.561997 26.727610 -3.562685 1.659763 -21.749094 -0.475786 0.724513 -15.804697 -3.782577 0.358452 11.566345 13.168519 0.686033 2.424333 -4.683778 1.783845 -64.586197 -40.053101 68.508324 -86.389259 1.498954 30.861094 8.524705 12.647240 -27.893932 -2.738486 -1.140572 2.095526 65.710960 27.676842 56.831596 86.167969 -1.283483 29.414906 -8.534408 -12.637552 56.956894 11.770854 8.959080 -8.516913 6.761728 -6.003454 -1.662652 -20.062637 13.911397 1.597534 11.451143 -11.067343 15.322842 9.484996 5.981945 2.043918 -26.256222 -17.837124 -4.980239 
0.351252 52.714348 7.934450 -4.128443 1.646930 -2.683897 26.734764 -3.529774 1.802252 -21.670950 -0.475162 0.762893 -15.886059 -3.847197 0.313557 11.611531 13.186172 0.579873 2.424333 -4.683778 1.783845 -64.566635 -40.072903 68.576202 -86.409370 1.541475 30.946630 8.524705 12.647240 -26.829477 -2.738486 -1.140572 2.095526 65.688225 28.019072 57.128082 86.185066 -1.272622 29.533291 -8.534408 -12.637552 57.992050 11.812832 9.029655 -8.366891 6.822429 -5.993230 -1.677238 -20.093361 13.878882 1.592991 11.484593 -10.995726 15.521302 9.483274 5.984313 2.053854 -26.276827 -17.902937 -5.006027 
0.341027 52.713139 7.924226 -4.109008 1.612379 -2.631839 26.715010 -3.477706 1.783712 -21.710032 -0.465294 0.753051 -15.819921 -3.914954 0.285255 11.559899 13.258056 0.491473 2.424333 -4.683778 1.783845 -64.535011 -40.004959 68.634102 -86.432106 1.593933 31.041277 8.524705 12.647240 -25.716200 -2.738486 -1.140572 2.095526 65.663040 28.244129 57.449295 86.202309 -1.261527 29.651674 -8.534408 -12.637552 58.861183 11.767236 9.110509 -8.414011 6.836773 -6.006825 -1.669901 -20.131907 13.866301 1.613278 11.463477 -10.925447 15.553913 9.507067 5.983544 2.045756 -26.342478 -17.924923 -5.046463 
0.334411 52.718853 7.910694 -4.012225 1.691018 -2.409116 26.621141 -3.516419 1.586472 -21.788239 -0.427354 0.703212 -15.654722 -3.934035 0.243992 11.469193 13.315877 0.425030 2.424333 -4.683778 1.783845 -64.500496 -39.810081 68.568558 -86.457420 1.646443 31.145973 8.524705 12.647240 -24.651747 -2.738486 -1.140572 2.095526 65.514816 28.783743 58.161232 86.209312 -1.265588 29.710039 -8.534408 -12.637552 59.769394 11.575433 9.095583 -8.664074 6.874974 -6.007827 -1.662716 -20.121035 13.882874 1.622129 11.375597 -10.953802 15.372274 9.528985 5.984966 2.057325 -26.387548 -17.963936 -5.083654 
